<?xml version="1.0" encoding="UTF-8"?>
<svg id="Capa_2" data-name="Capa 2" xmlns="http://www.w3.org/2000/svg" viewBox="0 0 362.26 35.54">
  <defs>
    <style>
      .cls-1 {
        fill: #4e4d4d;
      }

      .cls-2 {
        fill: #c71e4a;
      }
    </style>
  </defs>
  <g id="Capa_1-2" data-name="Capa 1">
    <g>
      <path class="cls-2" d="m267.3,10.42c0,2.73-1.07,5.21-2.82,7.01,1.75,1.8,2.82,4.29,2.82,7.01,0,5.55-4.48,10.03-10.03,10.03h-24.01v-6.09h24.01c2.19,0,3.99-1.8,3.99-3.99s-1.66-3.9-3.75-3.99h-18.12v-6.09h18.12c2.09-.1,3.8-1.85,3.8-3.99s-1.8-3.99-3.99-3.99h-24.01V.24h24.01c5.55,0,10.03,4.48,10.03,10.03l-.05.15Z"/>
      <path class="cls-2" d="m303.38,16.99c1.75,1.8,2.82,4.29,2.82,7.01,0,5.55-4.48,10.03-10.03,10.03h-13.98c-4.19,0-7.74-2.53-9.25-6.14-.49-1.22-.78-2.53-.78-3.94v-13.98c0-2.53.97-4.82,2.53-6.57.83-.92,1.8-1.7,2.92-2.29,1.36-.73,2.92-1.12,4.58-1.12h21.18v6.09h-21.18c-2.19,0-3.99,1.8-3.99,3.99v4.77c1.17-.49,2.48-.78,3.8-.78h14.37c2.77.05,5.26,1.22,7.06,3.07l-.05-.15Zm-7.26,10.96c2.19,0,3.99-1.8,3.99-3.99s-1.66-3.9-3.75-3.99h-14.37c-2.09.1-3.8,1.85-3.8,3.99s1.8,3.99,3.99,3.99h13.98-.05Z"/>
      <path class="cls-2" d="m332.7.1c6.09,0,11.01,4.92,11.01,11.01v12.03c0,6.09-4.92,11.01-11.01,11.01h-10.52c-6.09,0-11.01-4.92-11.01-11.01v-12.03c0-6.09,4.92-11.01,11.01-11.01h10.52Zm-10.52,6.09c-2.73,0-4.97,2.24-4.97,4.97v12.03c0,2.73,2.24,4.97,4.97,4.97h10.52c2.73,0,4.97-2.24,4.97-4.97v-12.03c0-2.73-2.24-4.97-4.97-4.97h-10.52Z"/>
      <path class="cls-2" d="m362.26,7.75c-.05,5.36-3.87,7.78-7.46,7.78-4.15,0-7.41-2.98-7.41-7.55,0-4.85,3.49-7.83,7.5-7.83,4.52,0,7.36,3.22,7.36,7.6Zm-11.74.14c0,3.08,2,5.31,4.33,5.31,2.47,0,4.29-2.14,4.29-5.36,0-2.33-1.26-5.36-4.33-5.36s-4.29,2.89-4.29,5.41Z"/>
    </g>
    <g>
      <polygon class="cls-1" points="133.32 1.36 133.32 16.01 107 16.01 107 1.36 102.11 1.36 102.11 35.54 107 35.54 107 20.89 133.32 20.89 133.32 35.54 138.2 35.54 138.2 1.36 133.32 1.36"/>
      <path class="cls-1" d="m183.04,1.36l-.05,17.09c0,2.38-.44,4.6-1.32,6.67-.88,2.07-2.1,3.88-3.66,5.45s-3.38,2.78-5.45,3.66c-2.07.88-4.27,1.32-6.62,1.32h-3.61c-2.34,0-4.55-.44-6.62-1.32-2.07-.88-3.88-2.11-5.45-3.69s-2.78-3.4-3.66-5.47-1.32-4.27-1.32-6.62V1.36h4.88v17.09c0,2.25.54,4.29,1.64,6.13,1.09,1.84,2.56,3.31,4.42,4.42,1.86,1.11,3.89,1.66,6.11,1.66h3.61c2.25,0,4.29-.55,6.13-1.66,1.84-1.11,3.3-2.58,4.4-4.42,1.09-1.84,1.64-3.88,1.64-6.13V1.36h4.93Z"/>
      <path class="cls-1" d="m228.32,25.78c0,1.79-.44,3.43-1.32,4.91s-2.06,2.66-3.54,3.54c-1.48.88-3.12,1.32-4.91,1.32h-28.15l-.4-4.88h28.55c1.33,0,2.48-.48,3.44-1.44.96-.96,1.44-2.11,1.44-3.44s-.48-2.48-1.44-3.44c-.96-.96-2.11-1.44-3.44-1.44h-27.15v-4.88h22.27c1.33,0,2.48-.48,3.44-1.44s1.44-2.11,1.44-3.44-.48-2.48-1.44-3.44c-.96-.96-2.11-1.44-3.44-1.44h-20.71v29.3h-4.88V1.36h25.59c1.79,0,3.43.44,4.91,1.32s2.66,2.06,3.54,3.54c.88,1.48,1.32,3.12,1.32,4.91,0,1.01-.15,1.98-.44,2.91s-.7,1.78-1.22,2.56c1.92.65,3.49,1.82,4.71,3.49,1.22,1.68,1.83,3.57,1.83,5.69Z"/>
      <path class="cls-1" d="m29.63.73l-29.63-.02v34.18h29.69l.14-.02c4.4-.54,12.71-4.63,12.71-16.24C42.54,2.46,29.75.75,29.63.73Zm-.24,29.57H4.59V5.31h24.6c1.08.17,8.75,1.79,8.75,13.33,0,9.83-7.23,11.45-8.56,11.67Z"/>
      <rect class="cls-1" x="45.5" y=".78" width="4.59" height="34.7"/>
      <path class="cls-1" d="m76.09,9.8c-10.38.16-17.83-6-17.9-6.06l-3.78-3.22v34.97h4.59V9.81c3.64,2.09,9.68,4.68,17.15,4.59,7.11-.1,12.54-2.44,15.89-4.43v25.53h4.59V.13l-3.88,3.7c-.06.06-6.23,5.83-16.67,5.97Z"/>
    </g>
  </g>
</svg>