<?xml version="1.0" encoding="UTF-8"?>
<svg id="Capa_2" data-name="Capa 2" xmlns="http://www.w3.org/2000/svg" viewBox="0 0 727.32 124.32">
  <defs>
    <style>
      .cls-1 {
        fill: #c71e4a;
      }

      .cls-2 {
        fill: #c8214b;
      }
    </style>
  </defs>
  <g id="Capa_1-2" data-name="Capa 1">
    <g>
      <g>
        <path class="cls-1" d="m69,3.5L.08,3.47v79.52h69.07l.32-.04c10.23-1.25,29.57-10.76,29.57-37.79,0-37.63-29.74-41.62-30.04-41.65Zm-.57,68.79H10.77V14.15h57.23c2.52.4,20.36,4.17,20.36,31,0,22.87-16.83,26.64-19.92,27.14Z"/>
        <rect class="cls-1" x="105.94" y="4.06" width="10.69" height="79.23"/>
        <path class="cls-1" d="m177.11,23.52c-24.15.37-41.47-13.96-41.63-14.09l-8.81-7.49v81.35h10.69V23.54c8.48,4.87,22.52,10.88,39.9,10.67,16.54-.23,29.16-5.67,36.97-10.3v59.38h10.69V1.03l-9.03,8.61c-.14.14-14.5,13.55-38.78,13.89Z"/>
        <polygon class="cls-1" points="245.04 36.78 247.01 36.78 247.01 14.11 316.77 14.11 316.77 3.42 236.32 3.42 236.32 83.64 316.77 83.64 316.77 72.95 247.01 72.95 247.01 46.76 245.04 46.76 245.04 36.78"/>
        <rect class="cls-1" x="247.01" y="36.78" width="70.04" height="9.98"/>
        <rect class="cls-2" x="245.04" y="36.78" width="1.97" height="9.98"/>
        <path class="cls-1" d="m402.13,57.29c-7.34-8.04-17.94-19-28.14-27.22-12.42-10-37.61-23-38.67-23.55l-7.79-4.01v80.77h10.69V20.2c8.4,4.6,21.56,12.16,29.07,18.2,16.96,13.66,35.9,36.26,36.09,36.49l9.45,11.31V2.95h-10.69v54.34Z"/>
        <path class="cls-1" d="m716.56,2.95v54.34c-7.34-8.04-17.94-19-28.14-27.22-12.42-10-37.6-23-38.67-23.55l-7.79-4.01v80.77h10.69V20.2c8.4,4.6,21.57,12.16,29.07,18.2,16.96,13.66,35.9,36.26,36.09,36.49l9.45,11.31V2.95h-10.69Z"/>
        <path class="cls-1" d="m492.49,38.7l-52.87-.02c-1.21-.07-8.84-.93-8.84-12.41,0-10.33,8.26-11.93,10.29-12.17h60.82V3.42h-61.09l-.42.02c-7.02.56-20.28,6.05-20.28,22.84,0,17.73,12.57,22.86,19.22,23.1h52.49c1.03.15,6.97,1.46,6.97,12.44,0,9.83-7.1,11.01-9.4,11.14h-67.82v10.69h68.07c7.97-.2,19.83-6.18,19.83-21.82,0-17.24-11.09-22.66-16.96-23.12Z"/>
        <rect class="cls-1" x="515.24" y="4.43" width="10.69" height="78.86"/>
        <path class="cls-1" d="m603.67.64c-3.51-.6-16.37-.64-20.22-.64-11.09,0-17.68.25-19.58.74-4.91,1.26-29.42,9.2-29.42,41.65,0,29.49,21.43,39.72,29.69,41.17,2.6.46,7.28.69,13.89.69h0c2.39,0,4.21-.03,4.6-.04.26,0,1.17,0,2.48,0,6.58,0,15.17-.11,18.74-.63,6.4-.94,30.32-10.49,30.34-40.05.03-29.76-19.17-40.96-30.52-42.89Zm-1.37,72.36c-2.22.32-8.64.52-17.18.52-1.51,0-2.47,0-2.47,0h-.16s-1.9.04-4.45.04h0c-5.74,0-10.13-.19-12.04-.53-.21-.04-20.85-4.83-20.85-30.64,0-23.77,16.13-29.92,21.27-31.27,1.14-.17,6.65-.43,17.04-.43s17.03.25,18.43.49c.88.15,21.65,4,21.62,32.34-.02,24.41-20.99,29.45-21.21,29.48Z"/>
      </g>
      <g>
        <path class="cls-1" d="m13.92,106.01l-3,1.13c-.35-1.22-.82-2.12-1.39-2.7-.57-.58-1.36-.87-2.35-.87-.92,0-1.63.3-2.14.89-.5.59-.75,1.27-.75,2.04,0,.85.28,1.52.85,2.02.56.5,1.69,1.1,3.38,1.8,1.44.6,2.55,1.17,3.33,1.71.78.54,1.41,1.26,1.89,2.17.48.91.72,1.96.72,3.15,0,1.94-.63,3.58-1.89,4.95-1.26,1.36-3.02,2.04-5.29,2.04-3.92,0-6.34-2.15-7.27-6.45l3.14-.96c.55,2.84,1.98,4.25,4.29,4.25,1.13,0,1.99-.32,2.57-.95.59-.64.88-1.42.88-2.35,0-.69-.2-1.32-.61-1.91-.4-.59-1.41-1.21-3.01-1.87-1.7-.7-2.92-1.29-3.67-1.77-.75-.48-1.39-1.2-1.92-2.14-.53-.95-.79-2.02-.79-3.22,0-1.83.59-3.38,1.76-4.62,1.18-1.25,2.74-1.87,4.68-1.87,3.45,0,5.65,1.86,6.6,5.57Z"/>
        <path class="cls-1" d="m118.11,112.38c0,3.94-.65,6.91-1.94,8.93-1.3,2.01-3.17,3.02-5.64,3.02s-4.37-1.01-5.69-3.01c-1.32-2.01-1.97-4.99-1.97-8.94s.65-6.88,1.96-8.9c1.3-2.02,3.2-3.03,5.69-3.03s4.34,1,5.64,3.01c1.3,2.01,1.96,4.98,1.96,8.92Zm-3.68,0c0-2.74-.29-4.89-.88-6.46-.59-1.57-1.61-2.36-3.07-2.36s-2.48.79-3.06,2.37c-.58,1.58-.87,3.73-.87,6.45s.28,4.82.85,6.42c.57,1.6,1.61,2.4,3.12,2.4,1.42,0,2.42-.77,3.01-2.32.59-1.55.89-3.71.89-6.5Z"/>
        <path class="cls-1" d="m205.75,100.86h11.78v3.06h-8.27v6.89h6.62v3.06h-6.62v10.04h-3.51v-23.04Z"/>
        <path class="cls-1" d="m304.25,100.86h12.96v3.24h-4.74v19.8h-3.51v-19.8h-4.71v-3.24Z"/>
        <path class="cls-1" d="m402.23,100.86h3.56l2.88,17.25,3.33-17.25h3.05l3.29,17.25,3.02-17.25h2.97l-4.47,23.09h-3.17l-3.36-16.91-3.29,16.91h-3.23l-4.57-23.09Z"/>
        <path class="cls-1" d="m515.29,100.86h3.94l5.69,23.04h-3.1l-1.43-5.77h-6.58l-1.32,5.77h-3.35l6.14-23.04Zm4.45,14.26l-2.61-11.47-2.62,11.47h5.23Z"/>
        <path class="cls-1" d="m611.91,100.86h6.39c2.31,0,4.01.57,5.11,1.71,1.1,1.14,1.65,2.77,1.65,4.89,0,2.84-1.08,4.84-3.25,6.02l4.02,10.41h-3.81l-3.3-9.62h-3.31v9.62h-3.51v-23.04Zm3.51,2.95v7.51h2.69c1.2,0,2.08-.36,2.65-1.08.56-.72.85-1.66.85-2.82,0-2.41-1.16-3.61-3.46-3.61h-2.72Z"/>
        <path class="cls-1" d="m715.03,100.86h12.15v3.06h-8.64v6.58h6.77v3.07h-6.77v7.21h8.78v3.12h-12.29v-23.04Z"/>
      </g>
    </g>
  </g>
</svg>