<?xml version="1.0" encoding="UTF-8"?>
<svg id="Capa_2" data-name="Capa 2" xmlns="http://www.w3.org/2000/svg" viewBox="0 0 466 55.24">
  <defs>
    <style>
      .cls-1 {
        fill: #c71e4a;
      }

      .cls-2 {
        fill: #c8214b;
      }
    </style>
  </defs>
  <g id="Capa_1-2" data-name="Capa 1">
    <g>
      <path class="cls-1" d="m44.17,2.24l-44.17-.02v50.96h44.26l.21-.02c6.56-.8,18.95-6.9,18.95-24.22,0-24.12-19.06-26.67-19.25-26.69Zm-.37,44.09H6.85V9.07h36.68c1.61.26,13.04,2.67,13.04,19.87,0,14.66-10.78,17.07-12.77,17.39Z"/>
      <rect class="cls-1" x="67.84" y="2.6" width="6.85" height="50.77"/>
      <path class="cls-1" d="m113.45,15.07c-15.47.24-26.58-8.94-26.68-9.03l-5.64-4.8v52.13h6.85V15.09c5.43,3.12,14.43,6.97,25.57,6.84,10.6-.15,18.69-3.63,23.69-6.6v38.06h6.85V.66l-5.79,5.52c-.09.09-9.29,8.69-24.85,8.9Z"/>
      <polygon class="cls-1" points="156.98 23.57 158.24 23.57 158.24 9.04 202.95 9.04 202.95 2.19 151.4 2.19 151.4 53.6 202.95 53.6 202.95 46.75 158.24 46.75 158.24 29.96 156.98 29.96 156.98 23.57"/>
      <rect class="cls-1" x="158.24" y="23.57" width="44.89" height="6.39"/>
      <rect class="cls-2" x="156.98" y="23.57" width="1.26" height="6.39"/>
      <path class="cls-1" d="m257.65,36.72c-4.7-5.15-11.5-12.18-18.04-17.44-7.96-6.41-24.1-14.74-24.78-15.09l-4.99-2.57v51.76h6.85V12.94c5.38,2.95,13.82,7.79,18.63,11.66,10.87,8.75,23.01,23.24,23.13,23.38l6.05,7.25V1.89h-6.85v34.83Z"/>
      <path class="cls-1" d="m459.15,1.89v34.82c-4.7-5.15-11.49-12.18-18.04-17.44-7.96-6.41-24.1-14.74-24.78-15.09l-4.99-2.57v51.76h6.85V12.94c5.38,2.95,13.82,7.79,18.63,11.66,10.87,8.75,23.01,23.24,23.13,23.38l6.05,7.25V1.89h-6.85Z"/>
      <path class="cls-1" d="m315.56,24.8h-33.88c-.77-.05-5.67-.61-5.67-7.97,0-6.62,5.3-7.65,6.59-7.8h38.98V2.19h-39.42c-4.5.37-13,3.89-13,14.65,0,11.36,8.06,14.65,12.32,14.8h33.64c.66.09,4.47.94,4.46,7.97,0,6.3-4.55,7.06-6.02,7.14h-43.46v6.85h43.62c5.11-.13,12.71-3.96,12.71-13.98,0-11.05-7.11-14.52-10.87-14.81Z"/>
      <rect class="cls-1" x="330.14" y="2.84" width="6.85" height="50.54"/>
      <path class="cls-1" d="m386.81.41c-2.25-.38-10.49-.41-12.96-.41-7.11,0-11.33.16-12.55.47-3.15.81-18.85,5.89-18.85,26.69,0,18.9,13.73,25.45,19.03,26.38,1.67.29,4.66.44,8.9.44h0c1.53,0,2.7-.02,2.94-.03.16,0,.75,0,1.59,0,4.22,0,9.72-.07,12.01-.41,4.1-.6,19.43-6.72,19.44-25.67.02-19.07-12.29-26.25-19.56-27.49Zm-.88,46.37c-1.42.21-5.54.33-11.01.33-.97,0-1.58,0-1.58,0h-.1s-1.22.03-2.85.03h0c-3.68,0-6.49-.12-7.72-.34-.13-.02-13.36-3.09-13.36-19.64,0-15.23,10.34-19.17,13.63-20.04.73-.11,4.26-.27,10.92-.27s10.91.16,11.81.32c.57.1,13.87,2.57,13.86,20.73-.01,15.64-13.45,18.87-13.59,18.89Z"/>
    </g>
  </g>
</svg>