<?xml version="1.0" encoding="UTF-8"?>
<svg id="Capa_2" data-name="Capa 2" xmlns="http://www.w3.org/2000/svg" viewBox="0 0 460.45 86.76">
  <defs>
    <style>
      .cls-1 {
        fill: #c71e4a;
      }

      .cls-2 {
        fill: #c8214b;
      }
    </style>
  </defs>
  <g id="Capa_1-2" data-name="Capa 1">
    <g>
      <g>
        <path class="cls-1" d="m167.34,25.75l-30.69-.02v35.41h30.76l.14-.02c4.56-.56,13.17-4.79,13.17-16.83,0-16.76-13.24-18.53-13.38-18.55Zm-.25,30.63h-25.68v-25.89h25.49c1.12.18,9.06,1.86,9.06,13.81,0,10.19-7.49,11.86-8.87,12.09Z"/>
        <rect class="cls-1" x="183.79" y="26" width="4.76" height="35.28"/>
        <path class="cls-1" d="m215.48,34.66c-10.75.17-18.47-6.21-18.54-6.28l-3.92-3.33v36.22h4.76v-26.61c3.78,2.17,10.03,4.84,17.77,4.75,7.36-.1,12.99-2.52,16.46-4.59v26.44h4.76V24.65l-4.02,3.83c-.06.06-6.46,6.04-17.27,6.19Z"/>
        <polygon class="cls-1" points="245.73 40.57 246.61 40.57 246.61 30.47 277.67 30.47 277.67 25.71 241.85 25.71 241.85 61.43 277.67 61.43 277.67 56.67 246.61 56.67 246.61 45.01 245.73 45.01 245.73 40.57"/>
        <rect class="cls-1" x="246.61" y="40.57" width="31.19" height="4.44"/>
        <rect class="cls-2" x="245.73" y="40.57" width=".88" height="4.44"/>
        <path class="cls-1" d="m315.68,49.7c-3.27-3.58-7.99-8.46-12.53-12.12-5.53-4.45-16.75-10.24-17.22-10.48l-3.47-1.78v35.97h4.76v-28.1c3.74,2.05,9.6,5.41,12.94,8.11,7.55,6.08,15.99,16.15,16.07,16.25l4.21,5.04V25.5h-4.76v24.2Z"/>
        <path class="cls-1" d="m455.69,25.5v24.2c-3.27-3.58-7.99-8.46-12.53-12.12-5.53-4.45-16.75-10.24-17.22-10.48l-3.47-1.78v35.97h4.76v-28.1c3.74,2.05,9.6,5.41,12.94,8.1,7.55,6.08,15.99,16.15,16.07,16.25l4.21,5.04V25.5h-4.76Z"/>
        <path class="cls-1" d="m355.92,41.42h-23.55c-.54-.04-3.94-.42-3.94-5.53,0-4.6,3.68-5.31,4.58-5.42h27.08v-4.76h-27.39c-3.12.26-9.03,2.7-9.03,10.18,0,7.89,5.6,10.18,8.56,10.29h23.37c.46.07,3.1.65,3.1,5.54,0,4.38-3.16,4.9-4.19,4.96h-30.2v4.76h30.31c3.55-.09,8.83-2.75,8.83-9.72,0-7.68-4.94-10.09-7.55-10.29Z"/>
        <rect class="cls-1" x="366.05" y="26.16" width="4.76" height="35.12"/>
        <path class="cls-1" d="m405.43,24.48c-1.56-.27-7.29-.29-9-.29-4.94,0-7.87.11-8.72.33-2.19.56-13.1,4.1-13.1,18.55,0,13.13,9.54,17.69,13.22,18.33,1.16.2,3.24.31,6.19.31h0c1.06,0,1.88-.01,2.05-.02.11,0,.52,0,1.11,0,2.93,0,6.76-.05,8.34-.28,2.85-.42,13.5-4.67,13.51-17.83.01-13.25-8.54-18.24-13.59-19.1Zm-.61,32.22c-.99.14-3.85.23-7.65.23-.67,0-1.1,0-1.1,0h-.07s-.84.02-1.98.02h0c-2.56,0-4.51-.09-5.36-.24-.09-.02-9.28-2.15-9.28-13.65,0-10.59,7.18-13.32,9.47-13.92.51-.08,2.96-.19,7.59-.19s7.58.11,8.21.22c.39.07,9.64,1.78,9.63,14.4,0,10.87-9.35,13.11-9.44,13.13Z"/>
      </g>
      <g>
        <polygon class="cls-1" points=".07 33.32 .07 18.98 60.31 64.81 119.07 20.05 119.07 33.22 60.14 86.76 .07 33.32"/>
        <path class="cls-1" d="m25.97,23.88l-9.66-5.99s12.74-4.98,23.34-7c10.61-2.02,14.46-2.14,20.5-1.9,6.04.24,17.66,2.55,25.3,6.29,7.64,3.74,9.24,7.65,9.72,9.79.47,2.14.36,7.06-1.36,8.6l-1.72,1.54s1.24-2.79-.53-6.29-5.63-6.88-12.62-9.26c-6.99-2.37-13.23-3.74-20.78-3.62-7.54.12-14.42,1.78-19.69,3.32-5.27,1.54-12.5,4.51-12.5,4.51Z"/>
        <path class="cls-1" d="m41.25,21.72v11.87l17.36,11.45s3.79-2.97,6.46-5.16c2.67-2.2,3.81-3.53,4.1-4.18v-13.1s.32,2.06-4.28,4.64c-4.58,2.58-6.04,3.42-6.04,3.42l-17.6-8.94Z"/>
        <path class="cls-1" d="m60.17,65.61L0,18.92,60.02,0l.16.05,58.91,20.03-58.93,45.52ZM2.21,19.32l57.96,44.97,56.75-43.84L60.01,1.1,2.21,19.32Z"/>
        <path class="cls-1" d="m69.82,52.93l-.31-.2L15.17,17.77l.95-.37c.13-.05,12.91-5.03,23.44-7.03,7.75-1.47,12.13-2,16.76-2,1.1,0,2.29.03,3.86.09,6.56.26,18.18,2.76,25.51,6.34,5.76,2.82,9.13,6.23,10,10.15.5,2.25.42,7.36-1.52,9.11l-1.72,1.54-22.61,17.33ZM17.46,18.01l52.31,33.65,22-16.86,1.69-1.52c1.53-1.37,1.65-6.09,1.2-8.1-.8-3.59-3.97-6.76-9.44-9.43-7.21-3.53-18.64-5.98-25.09-6.24-1.55-.06-2.73-.09-3.82-.09-3.91,0-7.87.32-16.57,1.98-8.77,1.67-19.13,5.42-22.29,6.61Z"/>
        <path class="cls-1" d="m58.48,30.91l-17.35-8.86.15-.29-.12-.32c.4-.16,9.83-3.77,15.45-3.77h.12c5.89.05,9.64,1.47,11.19,2.78,1.44,1.22,1.65,2.57.63,4.13-.74,1.14-2.85,2.69-5.79,4.24-2.87,1.51-4.11,2.03-4.16,2.05l-.11.04Zm-16.74-9.13l16.76,8.56c.36-.16,1.63-.72,4.01-1.98,2.82-1.48,4.91-3,5.59-4.06.87-1.34.71-2.41-.53-3.45-1.48-1.25-5.11-2.61-10.86-2.66-.04,0-.07,0-.11,0-4.88,0-12.99,2.89-14.86,3.59Z"/>
      </g>
    </g>
  </g>
</svg>