<?xml version="1.0" encoding="UTF-8"?>
<svg id="Capa_2" data-name="Capa 2" xmlns="http://www.w3.org/2000/svg" viewBox="0 0 1660.01 315.78">
  <defs>
    <style>
      .cls-1 {
        fill: #ff0a19;
      }
    </style>
  </defs>
  <g id="Capa_1-2" data-name="Capa 1">
    <g>
      <g>
        <path class="cls-1" d="m143.87,237.51c-31.32-.07-59.06-17.22-72.71-44.63-14.83-29.77-9-66.41,14.31-90.13,12.43-12.64,27.36-20.68,44.85-23.29,26.98-4.02,50.58,3.47,70.07,22.64,13.3,13.09,20.95,29.2,22.72,47.8,2.18,22.85-4.33,43.12-19.5,60.4-12.27,13.98-27.75,22.46-45.99,25.91-4.71.89-9.5,1.2-13.75,1.29Z"/>
        <path class="cls-1" d="m233.23,58.98c-9.16,0-18.31,0-27.45,0-21.22,0-42.44-.19-63.66.02-26.39.27-49.25,9.64-68.38,27.81-14.84,14.09-24.16,31.34-28.4,51.33-.44,2.09-.68,4.23-1.04,6.34-.1.61.02,1.29-.57,1.9-1.73-2.94-3.15-5.96-4.45-9.03-5.84-13.85-8.53-28.31-7.63-43.31,1.43-24,10.31-44.92,26.75-62.53,11.5-12.31,25.37-21,41.31-26.36C109.94,1.71,120.49.01,131.3.01,182.34,0,233.38,0,284.43,0c.7,0,1.39,0,2.15,0-.78,1.6-49.42,55.36-53.35,58.98Z"/>
        <path class="cls-1" d="m53.2,256.96h2.29c29.03,0,58.06.03,87.09,0,24.18-.03,45.78-7.55,64.52-22.87,14.57-11.91,24.85-26.89,30.96-44.69,1.95-5.68,3.32-11.52,4.14-17.48.1-.7.25-1.4.39-2.16.94.17.99,1.01,1.28,1.58,8.1,15.46,11.96,31.9,11.19,49.35-1.13,25.52-10.65,47.5-28.58,65.63-16.47,16.64-36.6,26.06-59.82,28.88-3.4.41-6.83.59-10.27.59-51.55-.01-103.11,0-154.66,0H0c.7-1.49,49.25-55.12,53.2-58.81Z"/>
      </g>
      <g>
        <path class="cls-1" d="m1099.77,237.24c-.66,4.25-.06,7.82-1,11.32h-39.63c-.85-3.07-1.24-162.36-.41-172.56h42.28c.02,6.33.05,12.79.06,19.25,0,6.52,0,13.05,0,19.57s0,12.96,0,19.7c2.21-.22,3.51-1.5,4.97-2.33,12.41-7.07,25.62-10.39,39.9-8.48,19.67,2.62,33.91,13.09,42.96,30.56,6.09,11.76,7.93,24.38,6.93,37.55-.74,9.72-2.61,19.1-6.85,27.9-8.16,16.95-21.52,27.22-40.01,30.81-13,2.52-25.38.62-37.3-4.95-4.21-1.97-7.81-4.84-11.91-8.35Zm.74-48.97c.1,2.92.3,6.87,1.41,10.67,2.18,7.43,6.04,13.65,13.33,17.11,13.35,6.34,28.33.38,33.87-13.6,4.02-10.17,3.96-20.52-.27-30.55-3.59-8.53-9.93-14.24-19.48-15.32-9.96-1.13-17.74,2.79-23.37,11-4.06,5.92-5.4,12.64-5.49,20.7Z"/>
        <path class="cls-1" d="m437.51,87.68c-1.1,12.08-2.23,24.36-3.34,36.59-1.48.59-2.49-.36-3.58-.75-11.17-3.97-22.48-7.31-34.41-7.89-5.18-.25-10.32.02-15.34,1.51-2.11.63-4.05,1.56-5.79,2.9-4.5,3.44-6.15,11.68-.52,16.41,3.4,2.85,7.28,4.73,11.34,6.29,7.09,2.74,14.25,5.3,21.35,8.03,7.25,2.78,14.2,6.16,20.55,10.69,13.39,9.57,19.3,22.76,18.71,38.98-.48,13.33-5.02,24.93-15.27,33.9-6.34,5.55-13.71,9.24-21.68,11.78-15.51,4.94-31.45,5.82-47.55,4.7-11.26-.78-22.39-2.49-33.32-5.39-1.17-.31-2.34-.65-4.06-1.13,1.35-13.2,2.69-26.36,4.04-39.57,1.79-.65,2.98.52,4.24,1.1,8.14,3.78,16.44,7.15,25.22,9.16,8.14,1.87,16.35,2.66,24.65,1.11,2.82-.53,5.56-1.25,8.1-2.62,7.57-4.09,9.58-12.79,4.56-19.81-2.62-3.66-6.35-5.88-10.25-7.85-5.22-2.64-10.74-4.57-16.21-6.61-7.76-2.9-15.54-5.77-22.77-9.88-8.06-4.58-15.01-10.37-19.15-18.88-7.88-16.21-7.32-43.76,18.76-58.29,11-6.13,22.91-9.31,35.32-10.33,17.7-1.45,35.3-.55,52.56,4.11,1.28.34,2.74.34,3.86,1.73Z"/>
        <path class="cls-1" d="m1307.77,137.27c1.14-3.89.06-7.48,1.1-11h41.46v122.31c-13.47.32-27.09.07-40.81.16-.96-4.19-.26-8.16-.95-11.83-1.56-.42-2.05.59-2.68,1.2-6.48,6.17-14.21,9.87-22.89,11.8-12.39,2.75-24.57,2.56-36.34-2.69-16.3-7.27-26.55-19.99-31.75-36.73-6.1-19.63-4.99-38.97,4.64-57.33,11.22-21.4,32.18-31.81,56.24-29.74,11.4.98,21.77,4.55,30.18,12.7.37.36.89.58,1.79,1.15Zm.81,50.36c0-5.48-.82-10.85-3.15-15.84-4.33-9.27-11.23-15.41-21.83-15.92-10.57-.51-18.41,4.53-23.04,13.81-6.66,13.36-5.67,26.75,2.42,39.1,8.19,12.5,24.99,13.85,35.79,3.48,6.99-6.71,9.8-15.12,9.81-24.63Z"/>
        <path class="cls-1" d="m989.04,236.67c-1.92.14-2.63,1.45-3.57,2.31-6.94,6.35-15.24,9.7-24.36,11.45-10.2,1.96-20.24,1.86-30.13-1.63-14-4.93-24.46-14.13-31-27.3-11.3-22.75-11.58-45.98.25-68.47,11.49-21.84,30.66-30.98,54.99-29.62,11.87.66,22.58,4.5,31.38,12.84.28.27.66.45,1.01.64.09.05.25-.03.85-.11.48-3.27.01-6.8.89-10.39h41.01c.83,2.76,1.2,113.95.35,122.11h-40.99c-.22-3.79-.44-7.65-.68-11.83Zm-52.18-51.38c.15,9.35,1.76,16.58,6.03,23,9.04,13.57,27.45,14.62,38.1,2.28,4.89-5.67,7.5-12.32,7.97-19.66.65-9.92-1.35-19.23-8.2-26.91-8.83-9.89-23.17-10.99-33.31-2.44-7.85,6.62-10.5,15.54-10.59,23.74Z"/>
        <path class="cls-1" d="m1574.75,248.55h-42.17V76.14h42.08v99.67c.28.12.57.25.85.37,4.35-5.21,8.06-10.92,12.1-16.38,4.04-5.46,7.97-11,11.95-16.5,4.06-5.61,8.14-11.2,12.27-16.89h47.19c-14.9,19.32-29.44,38.17-44.26,57.38,14.99,21.43,29.96,42.84,45.26,64.7h-47.23c-12.26-18.43-24.71-37.14-37.16-55.86-.28.05-.57.1-.85.14-.04,6.13-.01,12.27-.02,18.41,0,6.12,0,12.23,0,18.35v19.03Z"/>
        <path class="cls-1" d="m638.96,251.44c-13.04-.43-27.09-3.05-39.75-10.75-19.08-11.6-28.43-28.88-29.28-50.97-.46-11.92,1.89-23.24,7.87-33.65,8.32-14.48,20.83-23.89,36.55-28.84,21-6.6,41.83-5.83,61.99,3.37,23.6,10.77,37.15,33.84,35.84,59.77-.76,15.09-5.58,28.4-15.89,39.54-8.65,9.34-19.44,15.11-31.61,18.42-7.9,2.14-15.98,3.14-25.72,3.12Zm-25.42-63.5c.04,4.12.71,9.36,2.63,14.36,2.78,7.24,7.23,13.11,14.55,16.22,12.33,5.24,28.15,1.22,34.72-14.98,4.5-11.1,4.27-22.32-.17-33.36-4.29-10.66-13.4-16.51-24.85-16.37-11.23.13-19.73,6.16-23.97,16.97-2.01,5.13-2.76,10.48-2.9,17.16Z"/>
        <path class="cls-1" d="m1419.7,248.59h-40.77c-.93-3.06-1.37-107.97-.51-121.62,2.79-.82,32.24-1.01,36.98-.19.57,4.07.33,8.26.49,12.52,1.99.43,2.8-1.05,3.82-1.97,7.2-6.51,15.33-11.33,24.98-12.94,17.83-2.98,34.18.04,47.37,13.35,9.45,9.54,13.72,21.54,13.9,34.72.34,24.86.11,49.73.11,74.6,0,.39-.14.77-.26,1.42h-40.67c-.82-1.33-.4-2.85-.4-4.29-.03-19.02-.04-38.05,0-57.07,0-3-.25-5.96-.8-8.91-2.42-12.96-13.79-20.32-26.69-17.26-9.41,2.23-16.04,10.01-17.26,20.37-.22,1.88-.27,3.79-.27,5.69-.02,18.89-.01,37.78-.01,56.66,0,1.48,0,2.96,0,4.92Z"/>
        <path class="cls-1" d="m736.34,157.01h-17.84v-30.76c5.98-.45,11.93.24,18.22-.44v-39.03h42.63v39.28h26.66v30.72h-25.63c-1.22,1.26-.89,2.41-.89,3.46-.02,12.78-.08,25.56,0,38.33.09,13.38,7.96,20.21,21.3,18.56,2.55-.32,5.07-.88,8.21-1.43-1.2,11.24-3.3,22.06-5,33.14-7.16,1.58-14.29,2.29-21.48,2.47-5.73.15-11.39-.38-16.96-1.83-13.54-3.51-22.16-12.09-26.25-25.35-1.82-5.89-2.48-11.96-2.48-18.1,0-14.68,0-29.36-.01-44.04,0-1.47.23-2.98-.47-4.97Z"/>
        <path class="cls-1" d="m556.91,210.77c.69,11.92,1.35,23.41,2.02,35.01-5.13,2.25-10.33,3.17-15.49,4.16-12.88,2.46-25.68,2.19-38.27-1.63-27.43-8.33-42.86-31.7-43.7-58.46-.37-11.87,1.52-23.29,7.07-33.9,8.31-15.88,21.62-25.54,38.66-30.13,16.71-4.5,33.36-3.31,49.83,1.58.51.15.98.45,1.88.87-.65,11.47-1.32,23.05-1.99,34.81-2.24-.36-3.87-1.38-5.6-2.08-8.14-3.33-16.43-4.52-25.05-2.05-13.63,3.89-21.69,16.06-20.64,31.24.93,13.39,11.04,24.04,24.53,26,7.38,1.07,14.3-.37,21.03-3.28,1.71-.74,3.29-1.85,5.71-2.13Z"/>
        <path class="cls-1" d="m872.38,248.69h-41.66c-.79-2.79-1.11-114.67-.31-122.19h41.97v122.19Z"/>
        <path class="cls-1" d="m827.55,88.19c-.64-12.79,10.52-24.26,23.89-24.12,13.18.14,23.73,10.68,23.78,23.93.05,13.1-10.72,23.92-23.79,23.9-13.34-.02-23.82-10.43-23.87-23.71Z"/>
      </g>
    </g>
  </g>
</svg>